<svg width="448" height="144" viewBox="0 0 448 144" fill="none" xmlns="http://www.w3.org/2000/svg">
<path d="M139.16 72.7305C136.954 74.004 134.278 75.0104 131.132 75.7498C127.986 76.4893 124.718 76.859 121.327 76.859C116.751 76.859 112.849 76.3044 109.621 75.1953C106.435 74.0861 104.024 72.5456 102.39 70.5738C100.797 68.602 100 66.3221 100 63.734C100 61.4747 100.613 59.4823 101.838 57.7569C103.064 56.0316 104.76 54.6965 106.925 53.7517C105.25 52.889 103.963 51.6977 103.064 50.1778C102.206 48.6167 101.777 46.9119 101.777 45.0633C101.777 42.6807 102.513 40.5035 103.983 38.5317C105.495 36.5598 107.783 34.9783 110.847 33.787C113.911 32.5957 117.69 32 122.185 32C125.004 32 127.782 32.267 130.519 32.8011C133.256 33.3351 135.667 34.054 137.75 34.9577L134.441 44.0774C130.642 42.3932 126.719 41.551 122.675 41.551C119.774 41.551 117.609 41.9413 116.179 42.7218C114.749 43.4612 114.034 44.5088 114.034 45.8644C114.034 48.3292 115.811 49.5616 119.365 49.5616H131.5V58.8661H118.569C116.485 58.8661 114.912 59.2153 113.85 59.9136C112.788 60.5709 112.257 61.5568 112.257 62.8714C112.257 64.2681 113.033 65.3567 114.585 66.1372C116.138 66.9177 118.548 67.308 121.817 67.308C124.146 67.308 126.536 66.9999 128.987 66.3837C131.479 65.7264 133.644 64.8432 135.483 63.734L139.16 72.7305Z" fill="black"/>
<path d="M170.394 58.4964C174.193 59.7699 176.093 62.399 176.093 66.3837C176.093 69.3825 174.929 71.7446 172.6 73.4699C170.271 75.1542 166.839 75.9963 162.304 75.9963H143.613V42.5986H161.446C165.777 42.5986 169.127 43.3585 171.497 44.8785C173.907 46.3984 175.113 48.5346 175.113 51.2869C175.113 52.889 174.704 54.3063 173.887 55.5386C173.07 56.771 171.905 57.7569 170.394 58.4964ZM154.031 56.0316H160.405C163.101 56.0316 164.449 55.0252 164.449 53.0122C164.449 51.0815 163.101 50.1161 160.405 50.1161H154.031V56.0316ZM161.263 68.4171C164.082 68.4171 165.491 67.3901 165.491 65.3361C165.491 63.2822 164.122 62.2552 161.385 62.2552H154.031V68.4171H161.263Z" fill="black"/>
<path d="M197.541 64.1038H193.619V75.9963H181.975V42.5986H193.619V54.9225H197.786L205.937 42.5986H218.255L207.101 58.6196L218.99 75.9963H205.262L197.541 64.1038Z" fill="black"/>
<path d="M256.679 42.5986V75.9963H245.035V51.9031H236.639L236.394 57.0175C236.23 61.372 235.801 64.9664 235.107 67.8009C234.412 70.6354 233.268 72.8537 231.675 74.4558C230.082 76.0169 227.896 76.7974 225.118 76.7974C223.688 76.7974 221.808 76.5304 219.48 75.9963L219.97 66.4453C220.705 66.5275 221.196 66.5685 221.441 66.5685C222.707 66.5685 223.667 66.1577 224.321 65.3361C224.975 64.5146 225.424 63.4259 225.669 62.0703C225.914 60.6736 226.078 58.825 226.16 56.5246L226.65 42.5986H256.679Z" fill="black"/>
<path d="M298.7 42.5986V75.9963H287.607V72.484C286.382 73.7986 284.911 74.805 283.195 75.5034C281.52 76.2017 279.722 76.5509 277.802 76.5509C273.471 76.5509 270.019 75.2774 267.445 72.7305C264.912 70.1835 263.646 66.3631 263.646 61.2693V42.5986H275.29V59.3591C275.29 64.1654 277.148 66.5685 280.866 66.5685C282.705 66.5685 284.196 65.9318 285.34 64.6583C286.484 63.3438 287.056 61.3514 287.056 58.6812V42.5986H298.7Z" fill="black"/>
<path d="M341.877 42.5986V69.896C341.877 76.099 340.201 80.741 336.851 83.822C333.501 86.944 328.68 88.5051 322.389 88.5051C319.12 88.5051 316.056 88.1354 313.196 87.3959C310.336 86.6565 307.905 85.5679 305.903 84.1301L310.132 75.9347C311.48 77.0438 313.176 77.9065 315.218 78.5227C317.302 79.18 319.345 79.5086 321.347 79.5086C324.411 79.5086 326.658 78.8308 328.088 77.4752C329.518 76.1196 330.233 74.1067 330.233 71.4365V70.3273C327.986 72.9564 324.697 74.271 320.366 74.271C317.425 74.271 314.708 73.6137 312.215 72.2991C309.723 70.9435 307.742 69.0539 306.271 66.6302C304.8 64.1654 304.065 61.3309 304.065 58.1267C304.065 54.9635 304.8 52.1701 306.271 49.7464C307.742 47.2816 309.723 45.392 312.215 44.0774C314.708 42.7218 317.425 42.044 320.366 42.044C325.105 42.044 328.578 43.5845 330.784 46.6654V42.5986H341.877ZM323.124 64.9664C325.208 64.9664 326.923 64.3297 328.272 63.0562C329.661 61.7828 330.355 60.1396 330.355 58.1267C330.355 56.1138 329.681 54.4911 328.333 53.2587C326.985 51.9853 325.248 51.3485 323.124 51.3485C320.999 51.3485 319.243 51.9853 317.854 53.2587C316.505 54.4911 315.831 56.1138 315.831 58.1267C315.831 60.1396 316.526 61.7828 317.915 63.0562C319.304 64.3297 321.04 64.9664 323.124 64.9664Z" fill="black"/>
<path d="M118.892 92.3172V112.427H113.292V96.8275H105.692V112.427H100.12V92.3172H118.892Z" fill="black"/>
<path d="M131.139 96.5976C132.834 96.5976 134.31 96.9232 135.567 97.5744C136.824 98.2255 137.786 99.164 138.453 100.39C139.139 101.596 139.481 103.014 139.481 104.641C139.481 106.25 139.167 107.667 138.539 108.893C137.91 110.1 137.024 111.038 135.881 111.709C134.739 112.36 133.415 112.685 131.91 112.685C130.139 112.685 128.748 112.139 127.739 111.048V118H122.31V104.699C122.31 103.09 122.672 101.673 123.396 100.447C124.12 99.2215 125.148 98.2734 126.481 97.6031C127.815 96.9328 129.367 96.5976 131.139 96.5976ZM130.881 108.347C131.853 108.347 132.634 108.012 133.224 107.342C133.834 106.652 134.139 105.752 134.139 104.641C134.139 103.531 133.834 102.64 133.224 101.97C132.634 101.28 131.853 100.936 130.881 100.936C129.91 100.936 129.129 101.28 128.539 101.97C127.948 102.64 127.653 103.531 127.653 104.641C127.653 105.771 127.939 106.672 128.51 107.342C129.1 108.012 129.891 108.347 130.881 108.347Z" fill="black"/>
<path d="M149.734 112.685C148.076 112.685 146.581 112.341 145.248 111.651C143.915 110.962 142.867 110.004 142.105 108.778C141.362 107.553 140.991 106.164 140.991 104.613C140.991 103.081 141.362 101.702 142.105 100.476C142.867 99.2502 143.905 98.3022 145.219 97.6318C146.553 96.9424 148.057 96.5976 149.734 96.5976C151.41 96.5976 152.914 96.9424 154.248 97.6318C155.581 98.3022 156.619 99.2502 157.362 100.476C158.105 101.682 158.476 103.061 158.476 104.613C158.476 106.164 158.105 107.553 157.362 108.778C156.619 110.004 155.581 110.962 154.248 111.651C152.914 112.341 151.41 112.685 149.734 112.685ZM149.734 108.347C150.686 108.347 151.467 108.022 152.076 107.371C152.686 106.7 152.991 105.781 152.991 104.613C152.991 103.464 152.686 102.563 152.076 101.912C151.467 101.261 150.686 100.936 149.734 100.936C148.781 100.936 148 101.261 147.391 101.912C146.781 102.563 146.476 103.464 146.476 104.613C146.476 105.781 146.781 106.7 147.391 107.371C148 108.022 148.781 108.347 149.734 108.347Z" fill="black"/>
<path d="M169.222 108.52C169.965 108.52 170.603 108.414 171.136 108.204C171.689 107.993 172.241 107.648 172.794 107.17L175.622 110.157C174.155 111.843 171.965 112.685 169.051 112.685C167.241 112.685 165.651 112.341 164.279 111.651C162.908 110.962 161.841 110.004 161.079 108.778C160.337 107.553 159.965 106.164 159.965 104.613C159.965 103.081 160.337 101.711 161.079 100.505C161.822 99.2789 162.841 98.3213 164.137 97.6318C165.451 96.9424 166.917 96.5976 168.536 96.5976C170.041 96.5976 171.413 96.9136 172.651 97.5457C173.908 98.1585 174.908 99.0682 175.651 100.275C176.394 101.462 176.765 102.879 176.765 104.527L165.708 106.652C166.298 107.897 167.47 108.52 169.222 108.52ZM168.565 100.476C167.632 100.476 166.87 100.773 166.279 101.366C165.689 101.941 165.356 102.774 165.279 103.866L171.565 102.631C171.375 101.979 171.013 101.462 170.479 101.079C169.946 100.677 169.308 100.476 168.565 100.476Z" fill="black"/>
<path d="M186.611 106.882H184.782V112.427H179.354V96.8562H184.782V102.602H186.725L190.525 96.8562H196.268L191.068 104.325L196.611 112.427H190.211L186.611 106.882Z" fill="black"/>
<path d="M218.582 96.5976C220.486 96.5976 222.001 97.1722 223.124 98.3213C224.267 99.4704 224.839 101.204 224.839 103.521V112.427H219.41V104.412C219.41 103.32 219.201 102.516 218.782 101.998C218.382 101.481 217.81 101.223 217.067 101.223C216.248 101.223 215.591 101.51 215.096 102.085C214.601 102.659 214.353 103.531 214.353 104.699V112.427H208.925V104.412C208.925 102.286 208.144 101.223 206.582 101.223C205.744 101.223 205.077 101.51 204.582 102.085C204.087 102.659 203.839 103.531 203.839 104.699V112.427H198.41V96.8562H203.582V98.4937C204.153 97.8617 204.829 97.3924 205.61 97.086C206.41 96.7604 207.277 96.5976 208.21 96.5976C209.296 96.5976 210.267 96.7987 211.125 97.2009C211.982 97.6031 212.677 98.216 213.21 99.0395C213.82 98.2543 214.591 97.651 215.525 97.2296C216.458 96.8083 217.477 96.5976 218.582 96.5976Z" fill="black"/>
<path d="M228.126 96.8562H233.526V102.631H239.097V96.8562H244.525V112.427H239.097V106.968H233.526V112.427H228.126V96.8562Z" fill="black"/>
<path d="M255.558 112.886C250.434 112.886 247.872 110.674 247.872 106.25V96.8562H253.272V101.797C253.672 101.529 254.206 101.309 254.872 101.137C255.558 100.964 256.339 100.878 257.215 100.878C259.12 100.878 260.615 101.366 261.701 102.343C262.787 103.301 263.33 104.728 263.33 106.624C263.33 108.673 262.625 110.234 261.215 111.306C259.825 112.36 257.939 112.886 255.558 112.886ZM264.615 96.8562H270.044V112.427H264.615V96.8562ZM255.558 109.152C256.301 109.152 256.863 108.932 257.244 108.491C257.625 108.051 257.815 107.466 257.815 106.739C257.815 106.03 257.625 105.475 257.244 105.072C256.863 104.67 256.311 104.469 255.587 104.469C255.072 104.469 254.615 104.565 254.215 104.756C253.815 104.948 253.501 105.206 253.272 105.532V106.739C253.272 107.486 253.463 108.079 253.844 108.52C254.225 108.941 254.796 109.152 255.558 109.152Z" fill="black"/>
<path d="M281.889 108.52C282.632 108.52 283.27 108.414 283.803 108.204C284.355 107.993 284.908 107.648 285.46 107.17L288.289 110.157C286.822 111.843 284.632 112.685 281.717 112.685C279.908 112.685 278.317 112.341 276.946 111.651C275.575 110.962 274.508 110.004 273.746 108.778C273.003 107.553 272.632 106.164 272.632 104.613C272.632 103.081 273.003 101.711 273.746 100.505C274.489 99.2789 275.508 98.3213 276.803 97.6318C278.117 96.9424 279.584 96.5976 281.203 96.5976C282.708 96.5976 284.079 96.9136 285.317 97.5457C286.574 98.1585 287.574 99.0682 288.317 100.275C289.06 101.462 289.432 102.879 289.432 104.527L278.374 106.652C278.965 107.897 280.136 108.52 281.889 108.52ZM281.232 100.476C280.298 100.476 279.536 100.773 278.946 101.366C278.355 101.941 278.022 102.774 277.946 103.866L284.232 102.631C284.041 101.979 283.679 101.462 283.146 101.079C282.613 100.677 281.974 100.476 281.232 100.476Z" fill="black"/>
<path d="M308.106 112.685C306.392 112.685 304.859 112.341 303.506 111.651C302.154 110.962 301.097 110.004 300.335 108.778C299.592 107.553 299.221 106.164 299.221 104.613C299.221 103.061 299.592 101.682 300.335 100.476C301.097 99.2502 302.154 98.3022 303.506 97.6318C304.859 96.9424 306.392 96.5976 308.106 96.5976C309.859 96.5976 311.373 96.9807 312.649 97.7467C313.925 98.4937 314.83 99.5375 315.363 100.878L311.163 103.033C310.459 101.635 309.43 100.936 308.078 100.936C307.106 100.936 306.297 101.261 305.649 101.912C305.02 102.563 304.706 103.464 304.706 104.613C304.706 105.781 305.02 106.7 305.649 107.371C306.297 108.022 307.106 108.347 308.078 108.347C309.43 108.347 310.459 107.648 311.163 106.25L315.363 108.405C314.83 109.745 313.925 110.799 312.649 111.565C311.373 112.312 309.859 112.685 308.106 112.685Z" fill="black"/>
<path d="M333.577 96.8562V112.427H328.405V110.789C327.834 111.402 327.148 111.871 326.348 112.197C325.567 112.523 324.729 112.685 323.834 112.685C321.815 112.685 320.205 112.092 319.005 110.904C317.824 109.717 317.234 107.936 317.234 105.561V96.8562H322.662V104.67C322.662 106.911 323.529 108.031 325.262 108.031C326.119 108.031 326.815 107.735 327.348 107.141C327.881 106.528 328.148 105.599 328.148 104.354V96.8562H333.577Z" fill="black"/>
<path d="M344.992 112.685C343.278 112.685 341.744 112.341 340.392 111.651C339.04 110.962 337.983 110.004 337.221 108.778C336.478 107.553 336.106 106.164 336.106 104.613C336.106 103.061 336.478 101.682 337.221 100.476C337.983 99.2502 339.04 98.3022 340.392 97.6318C341.744 96.9424 343.278 96.5976 344.992 96.5976C346.744 96.5976 348.259 96.9807 349.535 97.7467C350.811 98.4937 351.716 99.5375 352.249 100.878L348.049 103.033C347.344 101.635 346.316 100.936 344.964 100.936C343.992 100.936 343.183 101.261 342.535 101.912C341.906 102.563 341.592 103.464 341.592 104.613C341.592 105.781 341.906 106.7 342.535 107.371C343.183 108.022 343.992 108.347 344.964 108.347C346.316 108.347 347.344 107.648 348.049 106.25L352.249 108.405C351.716 109.745 350.811 110.799 349.535 111.565C348.259 112.312 346.744 112.685 344.992 112.685Z" fill="black"/>
<path d="M374.691 96.5976C376.596 96.5976 378.11 97.1722 379.234 98.3213C380.377 99.4704 380.948 101.204 380.948 103.521V112.427H375.52V104.412C375.52 103.32 375.31 102.516 374.891 101.998C374.491 101.481 373.92 101.223 373.177 101.223C372.358 101.223 371.7 101.51 371.205 102.085C370.71 102.659 370.462 103.531 370.462 104.699V112.427H365.034V104.412C365.034 102.286 364.253 101.223 362.691 101.223C361.853 101.223 361.186 101.51 360.691 102.085C360.196 102.659 359.948 103.531 359.948 104.699V112.427H354.52V96.8562H359.691V98.4937C360.262 97.8617 360.939 97.3924 361.72 97.086C362.52 96.7604 363.386 96.5976 364.32 96.5976C365.405 96.5976 366.377 96.7987 367.234 97.2009C368.091 97.6031 368.786 98.216 369.32 99.0395C369.929 98.2543 370.701 97.651 371.634 97.2296C372.567 96.8083 373.586 96.5976 374.691 96.5976Z" fill="black"/>
<path d="M392.435 108.52C393.178 108.52 393.816 108.414 394.349 108.204C394.901 107.993 395.454 107.648 396.006 107.17L398.835 110.157C397.368 111.843 395.178 112.685 392.263 112.685C390.454 112.685 388.863 112.341 387.492 111.651C386.121 110.962 385.054 110.004 384.292 108.778C383.549 107.553 383.178 106.164 383.178 104.613C383.178 103.081 383.549 101.711 384.292 100.505C385.035 99.2789 386.054 98.3213 387.349 97.6318C388.663 96.9424 390.13 96.5976 391.749 96.5976C393.254 96.5976 394.625 96.9136 395.863 97.5457C397.12 98.1585 398.12 99.0682 398.863 100.275C399.606 101.462 399.978 102.879 399.978 104.527L388.921 106.652C389.511 107.897 390.682 108.52 392.435 108.52ZM391.778 100.476C390.844 100.476 390.082 100.773 389.492 101.366C388.901 101.941 388.568 102.774 388.492 103.866L394.778 102.631C394.587 101.979 394.225 101.462 393.692 101.079C393.159 100.677 392.52 100.476 391.778 100.476Z" fill="black"/>
<path d="M417.595 112.427V104.239L413.623 111.048H411.309L407.452 104.124V112.427H402.566V96.8562H408.28L412.595 104.986L417.337 96.8562H422.452L422.48 112.427H417.595Z" fill="black"/>
<path d="M433.514 112.886C428.391 112.886 425.829 110.674 425.829 106.25V96.8562H431.229V101.797C431.629 101.529 432.162 101.309 432.829 101.137C433.514 100.964 434.295 100.878 435.172 100.878C437.076 100.878 438.571 101.366 439.657 102.343C440.743 103.301 441.286 104.728 441.286 106.624C441.286 108.673 440.581 110.234 439.171 111.306C437.781 112.36 435.895 112.886 433.514 112.886ZM442.571 96.8562H448V112.427H442.571V96.8562ZM433.514 109.152C434.257 109.152 434.819 108.932 435.2 108.491C435.581 108.051 435.771 107.466 435.771 106.739C435.771 106.03 435.581 105.475 435.2 105.072C434.819 104.67 434.267 104.469 433.543 104.469C433.029 104.469 432.572 104.565 432.172 104.756C431.772 104.948 431.457 105.206 431.229 105.532V106.739C431.229 107.486 431.419 108.079 431.8 108.52C432.181 108.941 432.752 109.152 433.514 109.152Z" fill="black"/>
<path d="M17.1978 85.7045L33.1599 49H38.5149V59.3842L27.187 85.7045H35.6314V80.9751C35.6314 79.8236 37.5537 79.7413 38.5149 79.8442V94.3409C35.8786 94.3409 35.4941 93.4499 35.6314 93.0043V88.8918H25.6423L0.926829 144H0L6.28184 124.979C6.28184 124.979 0.720867 122.82 2.57452 118.194C4.42818 113.567 15.5501 88.8918 15.5501 88.8918H2.57452V85.7045H17.1978Z" fill="#FF9900"/>
<path d="M58.8022 85.7045L42.8401 49H37.4851V59.3842L48.813 85.7045H40.3686V80.9751C40.3686 79.8236 38.4463 79.7413 37.4851 79.8442V94.3409C40.1214 94.3409 40.5059 93.4499 40.3686 93.0043V88.8918H50.3577L75.0732 144H76L69.7182 124.979C69.7182 124.979 75.2791 122.82 73.4255 118.194C71.5718 113.567 60.4499 88.8918 60.4499 88.8918H73.4255V85.7045H58.8022Z" fill="#FF9900"/>
<path fill-rule="evenodd" clip-rule="evenodd" d="M38 43.0294C44.0684 43.0294 48.9878 38.144 48.9878 32.1176C48.9878 26.0912 44.0684 21.2059 38 21.2059C31.9316 21.2059 27.0122 26.0912 27.0122 32.1176C27.0122 38.144 31.9316 43.0294 38 43.0294ZM38 49C47.3888 49 55 41.4415 55 32.1176C55 22.7938 47.3888 15.2353 38 15.2353C28.6112 15.2353 21 22.7938 21 32.1176C21 41.4415 28.6112 49 38 49Z" fill="black"/>
<path d="M34.8902 0H41.1098V16.2647H34.8902V0Z" fill="black"/>
</svg>
